<?xml version="1.0" encoding="utf-8"?>
<!-- Generator: Adobe Illustrator 26.0.3, SVG Export Plug-In . SVG Version: 6.00 Build 0)  -->
<svg width="32" height="32" version="1.1" id="Layer_1" xmlns="http://www.w3.org/2000/svg" xmlns:xlink="http://www.w3.org/1999/xlink" x="0px" y="0px"
	 viewBox="0 0 32 32" style="enable-background:new 0 0 32 32;" xml:space="preserve">
<style type="text/css">
	.st0{fill-rule:evenodd;clip-rule:evenodd;fill:#FFE8BB;}
</style>
<path class="st0" d="M24.5,7.5c4.7,4.7,4.7,12.3,0,17c-4.7,4.7-12.3,4.7-17,0s-4.7-12.3,0-17C12.2,2.8,19.8,2.8,24.5,7.5z
	 M21.4,21.4c-0.4,0.4-1,0.4-1.4,0l-4-4l-4,4c-0.4,0.4-1,0.4-1.4,0c-0.4-0.4-0.4-1,0-1.4l4-4l-4-4c-0.4-0.4-0.4-1,0-1.4
	c0.4-0.4,1-0.4,1.4,0l4,4l4-4c0.4-0.4,1-0.4,1.4,0c0.4,0.4,0.4,1,0,1.4l-4,4l4,4C21.8,20.4,21.8,21,21.4,21.4z"/>
</svg>
