<svg width="14" height="12" viewBox="0 0 14 12" fill="none" xmlns="http://www.w3.org/2000/svg">
<path d="M11.7929 2.5C12.1953 2.5 12.5214 2.77982 12.5214 3.125V8.125C12.5214 8.47019 12.1953 8.75 11.7929 8.75H9.60715V10H11.7929C13 10 13.9786 9.16056 13.9786 8.125V3.125C13.9786 2.08947 13 1.25 11.7929 1.25H9.60715V2.5H11.7929Z" fill="black" fill-opacity="0.57"/>
<path d="M8.1499 0H6.69276V11.25H8.1499V0Z" fill="#2A2237"/>
<path d="M2.32143 3.125C2.32143 2.77982 2.64763 2.5 3.05 2.5H5.23572V1.25H3.05C1.84287 1.25 0.864288 2.08947 0.864288 3.125V8.125C0.864288 9.16056 1.84287 10 3.05 10H5.23572V8.75H3.05C2.64763 8.75 2.32143 8.47019 2.32143 8.125V3.125Z" fill="#2A2237"/>
</svg>
