<svg width="16" height="21" viewBox="0 0 16 21" fill="none" xmlns="http://www.w3.org/2000/svg">
<path d="M10.1205 8.39847C10.1558 8.41042 10.1921 8.41606 10.2275 8.41606C10.3665 8.41606 10.4961 8.32911 10.5431 8.19073C10.6474 7.88609 10.9811 7.72249 11.2871 7.82569C11.9411 8.04604 12.6547 7.6966 12.8764 7.04518C12.9357 6.87195 12.8424 6.68313 12.6681 6.62406C12.4931 6.56532 12.3044 6.65824 12.2451 6.8318C12.1411 7.13677 11.8074 7.30037 11.5011 7.19684C10.8481 6.97748 10.1338 7.32626 9.9118 7.97735C9.8528 8.15058 9.94613 8.3394 10.1205 8.39847Z" fill="#2A2237"/>
<path d="M10.9091 6.0862C10.9445 6.09815 10.9808 6.10379 11.0161 6.10379C11.1551 6.10379 11.2848 6.01684 11.3318 5.87846C11.3821 5.73079 11.4871 5.61132 11.6278 5.5423C11.7684 5.47327 11.9274 5.46332 12.0758 5.51342C12.7297 5.73377 13.4431 5.38433 13.6651 4.73258C13.7244 4.55935 13.6307 4.37053 13.4567 4.31146C13.2824 4.25173 13.0931 4.34564 13.0341 4.5192C12.9301 4.8245 12.5971 4.9881 12.2901 4.88457C11.9728 4.77738 11.6331 4.79928 11.3331 4.94695C11.0331 5.0943 10.8085 5.34949 10.7008 5.66508C10.6411 5.83864 10.7348 6.02713 10.9091 6.0862Z" fill="#2A2237"/>
<path d="M11.6971 3.77386C11.7328 3.78581 11.7688 3.79145 11.8045 3.79145C11.9435 3.79145 12.0731 3.70451 12.1201 3.56613C12.1968 3.34113 12.4438 3.22001 12.6694 3.29633C12.9478 3.39024 13.2461 3.371 13.5098 3.24191C13.7731 3.11249 13.9701 2.88882 14.0647 2.61172C14.1241 2.4385 14.0307 2.24967 13.8564 2.1906C13.6814 2.1312 13.4928 2.22478 13.4334 2.39834C13.3961 2.50752 13.3184 2.59579 13.2148 2.64657C13.1111 2.69734 12.9938 2.70497 12.8838 2.66747C12.3098 2.47467 11.6835 2.7813 11.4888 3.35241C11.4298 3.5263 11.5228 3.7148 11.6971 3.77386Z" fill="#2A2237"/>
<path d="M15.0525 8.93223C14.9907 8.89011 14.921 8.86604 14.8499 8.85683C15.5563 6.57122 15.9439 4.33198 15.9993 2.19928C16.0168 1.5285 15.6875 0.632944 15.0237 0.21844C14.7052 0.0191524 14.1832 -0.145092 13.5055 0.202157C12.4435 0.747632 11.6841 2.3522 11.0739 3.64208C11.0387 3.71642 11.0043 3.78898 10.9701 3.86084C10.8354 3.24386 10.4258 2.71608 9.84339 2.44069C9.70615 1.78372 9.18279 1.26904 8.52502 1.13559C8.51791 1.09877 8.50902 1.06267 8.498 1.02621C8.36254 0.565335 7.95401 0.21844 7.48149 0.162512C7.21519 0.131008 6.95137 0.185874 6.72595 0.317199C6.53396 0.210653 6.3185 0.154017 6.09734 0.154017C5.47905 0.154017 4.95959 0.583388 4.82413 1.15789C4.14823 1.34125 3.6526 1.95893 3.64727 2.67679C2.87608 2.87502 2.31432 3.56881 2.31432 4.39392C2.31432 4.61268 2.35556 4.82931 2.43485 5.03356C2.23468 5.27957 2.12375 5.58753 2.12375 5.9107C2.12375 6.10468 2.16392 6.29158 2.23965 6.46432C1.88446 6.07849 1.38456 5.7631 0.823153 5.78363C0.62689 5.79 0.472583 5.95318 0.478627 6.14858C0.484671 6.34008 0.642534 6.49158 0.833819 6.49158C0.845907 6.49193 0.856929 6.49087 0.868307 6.49087C1.20146 6.49087 1.51114 6.71033 1.73655 6.96519C1.17266 7.12696 0.492849 7.39032 0.1757 7.9857C-0.0152288 8.34499 -0.0376282 8.78569 0.0896579 9.29045C0.0281481 9.39275 -0.00562886 9.51169 0.000770991 9.63841L0.605913 18.2C0.661023 19.2736 1.54989 20.1143 2.62933 20.1143H12.6099C13.6894 20.1143 14.5782 19.2736 14.633 18.2064L15.2534 9.34709C15.2534 9.34497 15.2538 9.34284 15.2538 9.34072C15.2637 9.17754 15.188 9.02497 15.0525 8.93223ZM11.2603 4.87321C11.401 4.61162 11.5546 4.28738 11.7171 3.94367C12.2515 2.81378 12.9839 1.26656 13.8312 0.83117C14.1405 0.672589 14.4068 0.669404 14.6458 0.817719C15.0579 1.07541 15.3003 1.72566 15.2886 2.18087C15.2342 4.27357 14.8502 6.476 14.1469 8.72728C14.1238 8.80126 14.0726 8.95064 13.9997 9.15559L13.3939 9.42355C13.3807 9.42956 13.3679 9.43594 13.3555 9.44372C13.1806 9.54815 12.9843 9.59983 12.788 9.60195C12.5918 9.59983 12.3959 9.54815 12.2209 9.44372L11.9674 9.29222C11.6759 9.11807 11.3491 9.03099 11.0224 9.03099C11.0185 9.03099 11.0146 9.0317 11.0103 9.0317C10.6796 9.02957 10.3483 9.11559 10.0532 9.29222L9.80002 9.44372C9.65886 9.52797 9.50278 9.56903 9.34492 9.58673C9.3538 9.55593 9.36412 9.52585 9.37336 9.4954C9.47078 9.16585 9.57531 8.84091 9.68482 8.51843C9.72642 8.39596 9.76979 8.27419 9.81317 8.15278C9.90455 7.89686 10.0002 7.64412 10.099 7.39315C10.1431 7.28094 10.1861 7.16767 10.2317 7.05652C10.5417 6.30362 10.8837 5.57337 11.2603 4.87321ZM6.72773 5.71283C6.76933 5.65974 6.80986 5.60806 6.84826 5.55779C6.84826 5.55708 6.84862 5.55673 6.84897 5.55638C6.87706 5.51921 6.90159 5.48063 6.92221 5.44204C7.00968 5.27815 7.0303 5.09409 6.98977 4.91427L8.47382 4.59109C8.48378 4.6364 8.49445 4.68135 8.51151 4.72312C8.578 4.88524 8.69675 5.0201 8.86208 5.11426C8.91613 5.144 8.97266 5.17373 9.03097 5.20453C9.07897 5.22966 9.12697 5.25585 9.17532 5.28205C9.19843 5.29443 9.2219 5.30682 9.24501 5.31957C9.28732 5.34328 9.32821 5.36948 9.36945 5.39532C9.40465 5.41691 9.43949 5.43921 9.47362 5.46293C9.51309 5.49018 9.55078 5.52027 9.58847 5.55071C9.62153 5.57761 9.65318 5.60699 9.68446 5.63708C9.71824 5.67 9.75166 5.70363 9.78259 5.74044C9.83735 5.80557 9.88997 5.87318 9.93299 5.95424C9.78224 6.28556 9.64038 6.62361 9.50313 6.96449C9.4818 7.01723 9.45905 7.06856 9.43807 7.1213C9.04839 7.2197 8.67186 7.40377 8.20681 7.73332C7.62087 8.14782 7.18461 8.25791 6.46569 8.15419L6.24987 7.1705C6.10339 6.50538 6.42089 6.10256 6.72773 5.71283ZM8.49089 3.56315C8.50014 3.56138 8.50938 3.56031 8.51862 3.56031C8.58582 3.56031 8.64875 3.6081 8.66333 3.67536C8.67471 3.72633 8.65551 3.76633 8.64271 3.7858C8.63027 3.80491 8.60218 3.83854 8.55133 3.84951L6.58729 4.27747C6.50907 4.29446 6.42943 4.24278 6.41236 4.16561C6.39529 4.08809 6.44685 4.00845 6.52471 3.99145L7.56824 3.7642L8.49089 3.56315ZM7.34176 9.03807C7.31474 9.03984 7.28736 9.04055 7.26034 9.04338C7.06657 9.06285 6.87528 9.1117 6.6936 9.19311L6.62569 8.88338C6.72809 8.89188 6.83013 8.90037 6.92577 8.90037C7.54585 8.90037 8.04503 8.71666 8.61889 8.3103C8.79951 8.18216 8.9595 8.08517 9.11168 8.00482C9.07897 8.09721 9.04661 8.18924 9.01497 8.28198C8.99221 8.34853 8.96768 8.41401 8.94564 8.48091C8.8411 8.79595 8.74155 9.11347 8.64875 9.43381L8.41231 9.29293C8.12077 9.11878 7.79402 9.0317 7.46727 9.0317C7.463 9.0317 7.45838 9.03241 7.45411 9.03241C7.41643 9.0317 7.37909 9.03595 7.34176 9.03807ZM3.08906 5.37762L3.32194 5.18647L3.17083 4.92701C3.07626 4.76418 3.02612 4.58011 3.02612 4.39392C3.02612 3.82048 3.47731 3.35288 4.0533 3.32881L4.48494 3.31076L4.38432 2.89236C4.36725 2.82228 4.35872 2.75325 4.35872 2.68777C4.35872 2.23185 4.7164 1.84778 5.17292 1.8131L5.50145 1.78832V1.43611C5.51176 1.11789 5.77522 0.861966 6.0977 0.861966C6.2833 0.861966 6.41627 0.946212 6.49485 1.01701L6.74409 1.24107L6.98301 1.00603C7.09252 0.898425 7.24292 0.848161 7.39794 0.86586C7.58851 0.88816 7.7606 1.03612 7.81606 1.22621C7.83491 1.28992 7.84024 1.35151 7.83277 1.41417L7.79117 1.80956H8.19152C8.70244 1.80956 9.12981 2.20707 9.16501 2.71467L9.18101 2.94723L9.4018 3.0244C9.95752 3.21873 10.323 3.74226 10.3106 4.32808C10.3052 4.57834 10.2242 4.8194 10.0773 5.03072C9.83948 4.82967 9.58313 4.69409 9.36767 4.58118C9.31185 4.5518 9.25781 4.52348 9.20341 4.49339C9.18812 4.4849 9.16963 4.47003 9.16323 4.43286C9.1547 4.38189 9.1739 4.32065 9.21265 4.2757C9.36767 4.09659 9.42989 3.85234 9.37976 3.62191L9.33674 3.42687C9.29372 3.23006 9.17568 3.06192 9.00501 2.95289C8.83471 2.84422 8.63204 2.80776 8.43471 2.85095L8.33943 2.87183C8.33836 2.87219 8.33729 2.87183 8.33623 2.87219L7.2927 3.09944L6.27441 3.32067C6.07708 3.3635 5.90819 3.48067 5.79868 3.65093C5.68918 3.82048 5.65291 4.0226 5.69593 4.21906L5.71726 4.31534C5.71726 4.3157 5.71726 4.31605 5.71726 4.3164C5.71726 4.31676 5.71762 4.31711 5.71762 4.31782L5.7386 4.41375C5.79015 4.64949 5.95477 4.84807 6.17841 4.94365C6.23388 4.96736 6.2801 5.01232 6.2961 5.05798C6.30534 5.08417 6.30001 5.09762 6.27938 5.13161C6.27938 5.13161 6.27938 5.13161 6.27938 5.13196C6.24419 5.17904 6.20614 5.22683 6.16739 5.27603C6.12828 5.32558 6.08774 5.37762 6.0465 5.43142C6.03264 5.44948 6.01948 5.46824 6.00561 5.48664C5.9761 5.52664 5.94659 5.56735 5.91744 5.60983C5.90144 5.63283 5.88615 5.65655 5.87051 5.68062C5.84348 5.72204 5.81753 5.76487 5.79193 5.80876C5.777 5.83425 5.76242 5.85938 5.7482 5.88593C5.72153 5.93548 5.69735 5.98752 5.67353 6.04061C5.66322 6.06327 5.6522 6.08486 5.64295 6.10858C5.61167 6.18574 5.58393 6.26645 5.56189 6.3514C5.55833 6.36485 5.55691 6.37937 5.55371 6.39317C5.53665 6.46538 5.52278 6.54007 5.51389 6.61795C5.51034 6.64909 5.50962 6.68166 5.50749 6.71387C5.50465 6.75564 5.49931 6.79529 5.49931 6.83883C5.49789 6.83706 5.49647 6.83529 5.49505 6.83352C5.49007 6.82714 5.48509 6.82148 5.48047 6.81511C5.4186 6.73405 5.35674 6.65936 5.29452 6.58857C5.27496 6.56627 5.25505 6.54467 5.23514 6.52343C5.18288 6.46715 5.13061 6.41441 5.07799 6.36485C5.06092 6.34893 5.04386 6.33158 5.02644 6.31601C4.95995 6.25689 4.89311 6.20273 4.82591 6.15459C4.80706 6.14114 4.78786 6.12981 4.76902 6.11707C4.71853 6.08344 4.66804 6.05229 4.61684 6.02468C4.59196 6.01123 4.56742 5.99814 4.54218 5.9861C4.4892 5.96026 4.43587 5.93831 4.38218 5.9192C4.36441 5.91283 4.34663 5.90433 4.32885 5.89867C4.27054 5.88026 4.21188 5.8654 4.15286 5.85442C4.1461 5.85301 4.13934 5.85371 4.13259 5.85265C4.1205 5.85053 4.10877 5.84593 4.09668 5.84416C4.05543 5.83814 4.01632 5.84062 3.97579 5.83779C3.94735 5.83602 3.91926 5.83 3.89082 5.83C3.88228 5.83 3.87339 5.83212 3.86451 5.83212C3.8094 5.83283 3.75606 5.8392 3.70238 5.84593C3.67571 5.84947 3.64904 5.85159 3.62238 5.85655C3.55234 5.86929 3.48443 5.88699 3.41723 5.90823C3.40692 5.91141 3.39696 5.91389 3.38665 5.91743C3.20959 5.97725 3.04177 6.06185 2.88462 6.16415C2.85226 6.08451 2.8352 5.99884 2.8352 5.9107C2.83555 5.70363 2.92799 5.5093 3.08906 5.37762ZM0.804664 8.31667C0.955061 8.03455 1.32021 7.81933 1.95415 7.63881C2.25068 7.55456 2.52587 7.39704 2.74915 7.18466C2.85048 7.08802 2.94542 7.00626 3.03715 6.93192C3.32372 6.70007 3.57082 6.57405 3.79446 6.54538C3.79944 6.54467 3.80442 6.54396 3.8094 6.54361C3.88015 6.53582 3.94877 6.53795 4.01526 6.54963C4.03268 6.55281 4.05046 6.55883 4.06823 6.56343C4.1013 6.57157 4.13401 6.57972 4.16708 6.59281C4.18841 6.60095 4.20974 6.61334 4.23143 6.62326C4.26236 6.63812 4.29294 6.65157 4.32387 6.67033C4.34805 6.68485 4.37223 6.70361 4.39641 6.72024C4.4252 6.74042 4.454 6.75883 4.48316 6.78219C4.51018 6.80378 4.5372 6.82998 4.56422 6.8544C4.59125 6.87882 4.61827 6.90113 4.64529 6.92838C4.67515 6.95847 4.70538 6.99351 4.7356 7.02714C4.76013 7.0544 4.78466 7.07953 4.80955 7.10891C4.84333 7.14926 4.87746 7.19528 4.91159 7.23988C4.93328 7.2682 4.95461 7.29368 4.9763 7.32377C5.01506 7.37757 5.05417 7.4374 5.09328 7.49686C5.11034 7.52306 5.12777 7.54642 5.14483 7.57332C5.20136 7.66217 5.25825 7.75668 5.3155 7.85721C5.57718 8.31702 5.66393 8.9963 5.55016 9.58779C5.53131 9.58602 5.51282 9.58319 5.49398 9.58036C5.35852 9.55735 5.22803 9.51416 5.10928 9.44337L4.85577 9.29187C4.56422 9.11771 4.23748 9.03064 3.91073 9.03064C3.90682 9.03064 3.90291 9.03134 3.89864 9.03134C3.56798 9.02922 3.23661 9.11524 2.9415 9.29187L2.81813 9.3655C2.60302 9.49399 2.36196 9.55877 2.1209 9.56089C1.87948 9.55877 1.63878 9.49434 1.42367 9.3655L0.945461 9.07948C0.945461 9.07948 0.945105 9.07948 0.945105 9.07913C0.882173 9.04196 0.814264 9.01648 0.744576 9.00373C0.688755 8.72374 0.708666 8.4972 0.804664 8.31667ZM13.9247 18.1635C13.8888 18.8602 13.3118 19.406 12.6113 19.406H2.6304C1.92962 19.406 1.35292 18.8602 1.31665 18.1568L0.725021 9.78814L1.03435 9.97292C1.36963 10.1733 1.74615 10.2717 2.12161 10.2695C2.49743 10.2717 2.8736 10.1733 3.20888 9.97292L3.33225 9.89929C3.50718 9.79451 3.70309 9.74283 3.89935 9.74071C4.09561 9.74283 4.29152 9.79451 4.4668 9.89929L4.72031 10.0508C5.04101 10.2423 5.40438 10.3244 5.76349 10.3049C5.79549 10.3035 5.82748 10.3035 5.85984 10.3007C5.86375 10.3003 5.86731 10.2982 5.87157 10.2979C6.11441 10.2706 6.35263 10.1945 6.57236 10.0699C6.59298 10.0625 6.61502 10.0621 6.63422 10.0508L6.88773 9.89929C7.06266 9.79451 7.25856 9.74283 7.45483 9.74071C7.65109 9.74283 7.84699 9.79451 8.02228 9.89929L8.27578 10.0508C8.54493 10.2111 8.8443 10.2943 9.14545 10.3067C9.1515 10.3071 9.1579 10.3078 9.16394 10.3078C9.26776 10.311 9.37158 10.3078 9.47469 10.2933C9.53371 10.2858 9.59095 10.271 9.64891 10.2579C9.677 10.2511 9.70509 10.2451 9.73282 10.237C9.89068 10.1934 10.0453 10.1365 10.1893 10.0504L10.4428 9.89894C10.6178 9.79416 10.8137 9.74248 11.0099 9.74035C11.2062 9.74248 11.4021 9.79416 11.5774 9.89894L11.8309 10.0504C12.1246 10.2257 12.4542 10.3117 12.7834 10.3103C12.7887 10.3103 12.7944 10.3113 12.7998 10.3113C13.1191 10.3113 13.4387 10.2285 13.7253 10.0621L14.4228 9.75345C14.4378 9.74673 14.4484 9.73398 14.4623 9.72549L14.5167 9.70142L13.9247 18.1635Z" fill="#2A2237"/>
<path d="M2.00032 14.2709H4.3336C4.51759 14.2709 4.66692 14.1225 4.66692 13.939C4.66692 13.7555 4.51759 13.6072 4.3336 13.6072H2.00032C1.81632 13.6072 1.66699 13.7555 1.66699 13.939C1.66699 14.1225 1.81632 14.2709 2.00032 14.2709Z" fill="#2A2237"/>
<path d="M2.00032 15.5984H5.00025C5.18425 15.5984 5.33358 15.4501 5.33358 15.2665C5.33358 15.083 5.18425 14.9347 5.00025 14.9347H2.00032C1.81632 14.9347 1.66699 15.083 1.66699 15.2665C1.66699 15.4501 1.81632 15.5984 2.00032 15.5984Z" fill="#2A2237"/>
<path d="M5.6669 16.2621H2.00032C1.81632 16.2621 1.66699 16.4104 1.66699 16.5939C1.66699 16.7774 1.81632 16.9258 2.00032 16.9258H5.6669C5.8509 16.9258 6.00023 16.7774 6.00023 16.5939C6.00023 16.4104 5.8509 16.2621 5.6669 16.2621Z" fill="#2A2237"/>
<path d="M7.66691 16.2621H7.00026C6.81626 16.2621 6.66693 16.4104 6.66693 16.5939C6.66693 16.7774 6.81626 16.9258 7.00026 16.9258H7.66691C7.8509 16.9258 8.00023 16.7774 8.00023 16.5939C8.00023 16.4104 7.8509 16.2621 7.66691 16.2621Z" fill="#2A2237"/>
</svg>
