<svg width="20" height="24" viewBox="0 0 20 24" fill="none" xmlns="http://www.w3.org/2000/svg">
<path d="M3.36447 0C1.50926 0.000365519 0 1.52507 0 3.39884V20.6012C0 22.4751 1.50926 23.9998 3.36459 24H19.2461C19.6625 24 20 23.6591 20 23.2385V20.6012V17.9638V6.03619V0.761499C20 0.340908 19.6625 0 19.2461 0H3.36447ZM3.36459 1.523H18.4922V6.03619V17.2022H3.36447C2.67848 17.2023 2.04025 17.4113 1.50781 17.7686V3.39884C1.50781 2.36467 2.34085 1.52312 3.36459 1.523ZM18.4922 22.4769H3.36472C2.34085 22.4768 1.50781 21.6352 1.50781 20.601C1.50781 19.5669 2.34073 18.7253 3.36459 18.7252H18.4922V19.8395H6.62147C6.20507 19.8395 5.86757 20.1804 5.86757 20.601C5.86757 21.0216 6.20507 21.3625 6.62147 21.3625H18.4922V22.4769Z" fill="#FFE8BB"/>
<path d="M7.61434 10.3348V13.2342C7.61434 13.6572 7.9374 14 8.33596 14H12.664C13.0626 14 13.3857 13.6572 13.3857 13.2342V10.335C14.3391 9.92879 15 8.93659 15 7.80252C15 6.3402 13.9104 5.14302 12.5477 5.0771C12.0672 4.40249 11.3187 4 10.5001 4C9.68117 4 8.93276 4.40249 8.45246 5.0771C7.08958 5.14302 6 6.34032 6 7.80252C6 8.93672 6.661 9.92879 7.61434 10.3348ZM8.57103 6.60583C8.62564 6.60583 8.68118 6.61012 8.73648 6.61869C9.04661 6.66734 9.34992 6.49789 9.48835 6.19991C9.68013 5.78774 10.068 5.53154 10.5003 5.53154C10.9326 5.53154 11.3204 5.78774 11.5125 6.20015C11.651 6.49813 11.9557 6.66709 12.2644 6.61869C12.3194 6.61012 12.3748 6.60583 12.4294 6.60583C13.0513 6.60583 13.5572 7.14273 13.5572 7.80264C13.5572 8.40362 13.1343 8.91381 12.5735 8.98928C12.2131 9.0378 11.9428 9.36334 11.9428 9.74892V12.4685H9.05758V9.79953C9.05758 9.79867 9.05769 9.79769 9.05769 9.79695C9.08159 9.39348 8.80576 9.03976 8.42786 8.98916C7.8665 8.91405 7.44323 8.40398 7.44323 7.80252C7.44323 7.1426 7.94917 6.60583 8.57103 6.60583Z" fill="#FFE8BB"/>
</svg>
