<svg width="33" height="32" viewBox="0 0 33 32" fill="none" xmlns="http://www.w3.org/2000/svg">
<path fill-rule="evenodd" clip-rule="evenodd" d="M28.0303 16C28.0303 22.6274 22.6577 28 16.0303 28C9.40286 28 4.03027 22.6274 4.03027 16C4.03027 9.37258 9.40286 4 16.0303 4C22.6577 4 28.0303 9.37258 28.0303 16ZM16.0303 23.6667C15.478 23.6667 15.0303 23.219 15.0303 22.6667V17H9.36361C8.81132 17 8.36361 16.5523 8.36361 16C8.36361 15.4477 8.81132 15 9.36361 15H15.0303V9.33333C15.0303 8.78105 15.478 8.33333 16.0303 8.33333C16.5826 8.33333 17.0303 8.78105 17.0303 9.33333V15H22.6969C23.2492 15 23.6969 15.4477 23.6969 16C23.6969 16.5523 23.2492 17 22.6969 17H17.0303V22.6667C17.0303 23.219 16.5826 23.6667 16.0303 23.6667Z" fill="#FFE8BB"/>
</svg>
