<svg width="22" height="22" viewBox="0 0 22 22" fill="none" xmlns="http://www.w3.org/2000/svg">
<path d="M16.0396 0C15.0078 0.0172091 13.9985 0.326058 13.1137 0.895358C12.2288 1.46466 11.4997 2.27425 11 3.24237C10.5003 2.27425 9.77118 1.46466 8.88632 0.895358C8.00146 0.326058 6.99216 0.0172091 5.96037 0C4.31556 0.0766288 2.76589 0.848179 1.64991 2.14609C0.533927 3.444 -0.0576437 5.16277 0.00443589 6.92689C0.00443589 13.5836 10.0434 21.2719 10.4704 21.5981L11 22L11.5296 21.5981C11.9566 21.2739 21.9956 13.5836 21.9956 6.92689C22.0576 5.16277 21.4661 3.444 20.3501 2.14609C19.2341 0.848179 17.6844 0.0766288 16.0396 0Z" fill="#FFE8BB"/>
</svg>
