<svg width="22" height="23" viewBox="0 0 22 23" fill="none" xmlns="http://www.w3.org/2000/svg">
<path d="M21.9584 20.3178C21.9226 20.1924 21.8646 20.0759 21.7876 19.9749C21.7106 19.874 21.6161 19.7905 21.5095 19.7294C21.4029 19.6683 21.2864 19.6307 21.1665 19.6188C21.0466 19.6068 20.9257 19.6208 20.8108 19.6598L19.6192 20.0598L18.7658 17.3227C19.6621 16.774 20.3613 15.9097 20.7489 14.8711C21.1365 13.8326 21.1897 12.6813 20.8997 11.6055L19.2104 6.13037C18.9977 5.3829 18.5277 4.75452 17.8991 4.3774C17.2705 4.00028 16.5324 3.90382 15.84 4.1083L12.3092 5.18234C11.8028 5.33604 11.3482 5.64658 11.0003 6.07636C10.6523 5.64658 10.1977 5.33604 9.69134 5.18234L6.15964 4.1083C5.47225 3.90144 4.73812 3.99316 4.11139 4.36423C3.48467 4.73529 3.01408 5.35683 2.79843 6.09836L1.08711 11.6555C0.808479 12.7305 0.870885 13.8766 1.26421 14.908C1.65753 15.9394 2.3587 16.7956 3.25398 17.3377L2.3887 20.0658L1.19252 19.6598C1.07757 19.6204 0.956627 19.6061 0.836604 19.6177C0.71658 19.6293 0.599826 19.6665 0.493006 19.7274C0.386186 19.7882 0.291394 19.8714 0.21404 19.9722C0.136686 20.073 0.0782865 20.1894 0.0421752 20.3148C0.00606384 20.4402 -0.00705195 20.5722 0.00357668 20.7031C0.0142053 20.8341 0.0483702 20.9614 0.104121 21.078C0.159871 21.1945 0.236115 21.2979 0.3285 21.3823C0.420885 21.4667 0.527601 21.5304 0.642556 21.5698L2.62244 22.2409C2.63619 22.2409 2.64444 22.2579 2.65818 22.2639C2.67193 22.2699 2.70585 22.2699 2.72968 22.2769L4.72881 22.9539C4.96097 23.0327 5.2123 23.0076 5.42752 22.8842C5.64274 22.7608 5.80421 22.5492 5.87641 22.2959C5.94861 22.0426 5.92563 21.7684 5.81252 21.5336C5.69941 21.2988 5.50544 21.1226 5.27328 21.0438L4.14035 20.6588L4.99738 17.9587C5.16735 17.9825 5.33842 17.9959 5.50976 17.9987C6.50077 17.9961 7.46429 17.643 8.25587 16.9925C9.04745 16.342 9.62444 15.4291 9.90033 14.3906L11.0003 10.8345L12.0846 14.3346C12.3519 15.3863 12.9272 16.3137 13.7228 16.9753C14.5183 17.6368 15.4905 17.9963 16.4908 17.9987C16.6689 17.9969 16.8467 17.9835 17.0233 17.9587L17.8648 20.6588L16.7245 21.0448C16.4923 21.1236 16.2984 21.2998 16.1853 21.5346C16.0722 21.7694 16.0492 22.0436 16.1214 22.2969C16.1936 22.5502 16.355 22.7618 16.5703 22.8852C16.7855 23.0086 17.0368 23.0337 17.269 22.9549L19.2626 22.2799C19.2864 22.2729 19.3112 22.2799 19.335 22.2669C19.3588 22.2539 19.3588 22.2479 19.3735 22.2419L21.3552 21.5708C21.4703 21.5319 21.5772 21.4685 21.6698 21.3844C21.7624 21.3003 21.8389 21.1971 21.8949 21.0807C21.9509 20.9644 21.9854 20.8371 21.9963 20.7062C22.0071 20.5753 21.9943 20.4433 21.9584 20.3178ZM12.2441 7.59041C12.3024 7.47323 12.3819 7.37012 12.4776 7.28729C12.5734 7.20446 12.6835 7.1436 12.8014 7.1084L16.3313 6.03536C16.4101 6.0113 16.4915 5.99886 16.5733 5.99836C16.7749 6.00068 16.9704 6.07383 17.1309 6.20695C17.2914 6.34007 17.4083 6.52608 17.4642 6.73738L18.1618 8.99845H12.366L12.1689 8.36143C12.1338 8.23393 12.1223 8.10005 12.1352 7.96765C12.1482 7.83525 12.1852 7.707 12.2441 7.59041ZM5.42544 5.99836C5.50751 5.99853 5.5892 6.01063 5.66834 6.03436L9.19912 7.1084C9.43238 7.17858 9.63074 7.34655 9.75094 7.57567C9.87113 7.80478 9.90342 8.07645 9.84075 8.33143L9.63451 8.99845H3.83878L4.54457 6.70838C4.60282 6.50303 4.71971 6.32337 4.87818 6.19563C5.03666 6.0679 5.2284 5.99878 5.42544 5.99836ZM8.15144 13.7986C8.00503 14.3694 7.70691 14.8801 7.29471 15.2663C6.88251 15.6524 6.37469 15.8967 5.83536 15.9683C5.29603 16.0399 4.74935 15.9355 4.26432 15.6684C3.77928 15.4014 3.37764 14.9835 3.11007 14.4676C2.75582 13.7937 2.65964 12.9944 2.84242 12.2436L3.2219 10.9985H9.01672L8.15144 13.7986ZM15.147 15.6067C14.8258 15.4078 14.5443 15.1409 14.3191 14.8217C14.0938 14.5024 13.9294 14.1372 13.8353 13.7476L12.9838 10.9985H18.7795L19.1462 12.1926C19.2925 12.7644 19.28 13.3707 19.1102 13.9348C18.9405 14.4989 18.6212 14.9953 18.1927 15.3613C17.7642 15.7273 17.2458 15.9463 16.7032 15.9907C16.1605 16.0351 15.618 15.9028 15.1443 15.6107L15.147 15.6067Z" fill="#FFE8BB"/>
<path d="M13.9608 3.29487C14.0592 3.34502 14.1664 3.3749 14.2763 3.38279C14.3861 3.39068 14.4964 3.37642 14.6008 3.34084C14.7052 3.30525 14.8016 3.24905 14.8844 3.17548C14.9672 3.10191 15.0348 3.01242 15.0833 2.9122L15.9167 1.2227C16.0155 1.02219 16.0316 0.7901 15.9616 0.577499C15.8916 0.364898 15.7411 0.189198 15.5433 0.0890516C15.3455 -0.0110949 15.1166 -0.0274846 14.9068 0.0434881C14.6971 0.114461 14.5238 0.266982 14.425 0.467499L13.5917 2.157C13.5419 2.25622 13.512 2.36444 13.5036 2.47543C13.4952 2.58642 13.5086 2.69799 13.5429 2.80373C13.5772 2.90947 13.6318 3.0073 13.7035 3.09159C13.7752 3.17587 13.8627 3.24496 13.9608 3.29487Z" fill="#FFE8BB"/>
<path d="M6.92083 2.9122C7.01962 3.11328 7.19317 3.26634 7.40328 3.33771C7.50732 3.37304 7.61721 3.38726 7.72667 3.37955C7.83613 3.37184 7.94303 3.34235 8.04124 3.29276C8.13946 3.24317 8.22708 3.17446 8.2991 3.09055C8.37112 3.00663 8.42614 2.90916 8.461 2.80369C8.49586 2.69823 8.50988 2.58684 8.50228 2.47588C8.49467 2.36491 8.46558 2.25656 8.41666 2.157L7.58333 0.467499C7.53441 0.368213 7.46668 0.279666 7.384 0.206914C7.30133 0.134163 7.20533 0.0786302 7.10148 0.0434881C6.89175 -0.0274846 6.6628 -0.0110949 6.465 0.0890515C6.26719 0.189198 6.11673 0.364898 6.04671 0.577499C5.9767 0.7901 5.99287 1.02219 6.09166 1.2227L6.92083 2.9122Z" fill="#FFE8BB"/>
<path d="M11 3.37924C11.221 3.37924 11.433 3.29024 11.5892 3.13182C11.7455 2.9734 11.8333 2.75853 11.8333 2.53449V0.844994C11.8333 0.620952 11.7455 0.406087 11.5892 0.247666C11.433 0.0892443 11.221 0.000244141 11 0.000244141C10.779 0.000244141 10.567 0.0892443 10.4107 0.247666C10.2545 0.406087 10.1667 0.620952 10.1667 0.844994V2.53449C10.1667 2.75853 10.2545 2.9734 10.4107 3.13182C10.567 3.29024 10.779 3.37924 11 3.37924Z" fill="#FFE8BB"/>
</svg>
