<svg width="27" height="28" viewBox="0 0 27 28" fill="none" xmlns="http://www.w3.org/2000/svg">
<path d="M4.93082 0C2.52422 0.000424615 0.566406 1.77163 0.566406 3.94835V23.9319C0.566406 26.1087 2.52422 27.8799 4.93097 27.8802H25.5325C26.0727 27.8802 26.5105 27.4842 26.5105 26.9956V23.9319V20.8681V7.01209V0.884614C26.5105 0.396024 26.0727 0 25.5325 0H4.93082ZM4.93097 1.76923H24.5545V7.01209V19.9834H4.93082C4.04094 19.9835 3.21303 20.2262 2.52235 20.6414V3.94835C2.52235 2.74697 3.60297 1.76937 4.93097 1.76923ZM24.5545 26.1108H4.93113C3.60297 26.1107 2.52235 25.1331 2.52235 23.9317C2.52235 22.7303 3.60281 21.7527 4.93097 21.7526H24.5545V23.0471H9.15581C8.61565 23.0471 8.17783 23.4431 8.17783 23.9317C8.17783 24.4203 8.61565 24.8163 9.15581 24.8163H24.5545V26.1108Z" fill="var(--secondarycolor)"/>
<path d="M10.4437 12.0056V15.3738C10.4437 15.8651 10.8628 16.2634 11.3798 16.2634H16.9942C17.5112 16.2634 17.9303 15.8651 17.9303 15.3738V12.0058C19.1671 11.5339 20.0244 10.3813 20.0244 9.0639C20.0244 7.36516 18.611 5.97443 16.8433 5.89785C16.22 5.11417 15.2491 4.64661 14.1872 4.64661C13.1248 4.64661 12.154 5.11417 11.5309 5.89785C9.76302 5.97443 8.34961 7.3653 8.34961 9.0639C8.34961 10.3815 9.20706 11.5339 10.4437 12.0056ZM11.6848 7.67373C11.7556 7.67373 11.8276 7.67872 11.8994 7.68868C12.3017 7.74519 12.6951 7.54834 12.8747 7.20219C13.1235 6.72338 13.6266 6.42576 14.1875 6.42576C14.7482 6.42576 15.2513 6.72338 15.5004 7.20247C15.6801 7.54862 16.0754 7.7449 16.4759 7.68868C16.5472 7.67872 16.619 7.67373 16.6899 7.67373C17.4966 7.67373 18.1529 8.29744 18.1529 9.06404C18.1529 9.76218 17.6043 10.3549 16.8768 10.4425C16.4092 10.4989 16.0586 10.8771 16.0586 11.325V14.4842H12.3159V11.3838C12.3159 11.3828 12.3161 11.3816 12.3161 11.3808C12.3471 10.9121 11.9893 10.5012 11.499 10.4424C10.7708 10.3551 10.2218 9.76261 10.2218 9.0639C10.2218 8.29729 10.8781 7.67373 11.6848 7.67373Z" fill="var(--secondarycolor)"/>
</svg>
