<svg width="13" height="16" viewBox="0 0 13 16" fill="none" xmlns="http://www.w3.org/2000/svg">
<path d="M8.58708 7.12597C8.61706 7.13611 8.64789 7.1409 8.67787 7.1409C8.7958 7.1409 8.90582 7.06713 8.9457 6.94971C9.03422 6.69123 9.31733 6.55241 9.57696 6.63998C10.1319 6.82695 10.7374 6.53045 10.9255 5.97773C10.9758 5.83075 10.8966 5.67054 10.7487 5.62042C10.6002 5.57058 10.4401 5.64942 10.3898 5.79668C10.3015 6.05544 10.0184 6.19426 9.75853 6.10641C9.20448 5.92029 8.59839 6.21622 8.41003 6.76866C8.35997 6.91564 8.43916 7.07585 8.58708 7.12597Z" fill="#2A2237"/>
<path d="M9.25624 5.16406C9.28622 5.1742 9.31704 5.17898 9.34702 5.17898C9.46496 5.17898 9.57498 5.10521 9.61485 4.9878C9.65756 4.8625 9.74665 4.76113 9.866 4.70256C9.98535 4.644 10.1203 4.63555 10.2461 4.67807C10.801 4.86503 11.4062 4.56854 11.5946 4.01553C11.6449 3.86855 11.5655 3.70834 11.4178 3.65822C11.2699 3.60754 11.1093 3.68722 11.0592 3.83448C10.971 4.09353 10.6884 4.23234 10.428 4.14449C10.1587 4.05354 9.87053 4.07213 9.61599 4.19743C9.36145 4.32244 9.17082 4.53897 9.07947 4.80675C9.02885 4.95401 9.10832 5.11394 9.25624 5.16406Z" fill="#2A2237"/>
<path d="M9.92484 3.20204C9.9551 3.21218 9.98565 3.21697 10.0159 3.21697C10.1338 3.21697 10.2439 3.1432 10.2837 3.02578C10.3488 2.83488 10.5584 2.7321 10.7498 2.79686C10.986 2.87655 11.2391 2.86022 11.4628 2.75069C11.6863 2.64087 11.8534 2.4511 11.9337 2.21598C11.9841 2.069 11.9049 1.90879 11.757 1.85867C11.6085 1.80827 11.4484 1.88767 11.3981 2.03493C11.3664 2.12757 11.3005 2.20247 11.2125 2.24555C11.1246 2.28863 11.025 2.29511 10.9317 2.26329C10.4447 2.0997 9.91324 2.35987 9.74808 2.84445C9.69802 2.99199 9.77692 3.15193 9.92484 3.20204Z" fill="#2A2237"/>
<path d="M11.9736 7.10518C11.9244 7.07168 11.869 7.05253 11.8124 7.04521C12.3744 5.22711 12.6826 3.44589 12.7268 1.74943C12.7406 1.21585 12.4787 0.503478 11.9507 0.173759C11.6973 0.0152349 11.2821 -0.115414 10.743 0.160807C9.89825 0.594707 9.29414 1.87107 8.80882 2.89711C8.78082 2.95624 8.75339 3.01396 8.72624 3.07112C8.61905 2.58034 8.29323 2.16052 7.82997 1.94146C7.7208 1.41886 7.30449 1.00946 6.78127 0.903309C6.77561 0.874025 6.76854 0.845305 6.75977 0.816303C6.65202 0.449698 6.32706 0.173759 5.95119 0.129271C5.73935 0.104211 5.5295 0.147855 5.35019 0.252317C5.19747 0.167565 5.02608 0.122513 4.85016 0.122513C4.35833 0.122513 3.94513 0.464058 3.83738 0.921048C3.29973 1.0669 2.90548 1.55824 2.90123 2.12927C2.28779 2.28695 1.84094 2.83883 1.84094 3.49517C1.84094 3.66918 1.87374 3.8415 1.93681 4.00396C1.77758 4.19966 1.68934 4.44462 1.68934 4.7017C1.68934 4.856 1.7213 5.00467 1.78154 5.14207C1.499 4.83516 1.10136 4.58428 0.65478 4.60061C0.498663 4.60568 0.375918 4.73549 0.380726 4.89091C0.385534 5.04324 0.511107 5.16375 0.663265 5.16375C0.672881 5.16404 0.681648 5.16319 0.690699 5.16319C0.955703 5.16319 1.20204 5.33776 1.38135 5.5405C0.932794 5.66917 0.392039 5.87866 0.139762 6.35226C-0.0121138 6.63806 -0.0299315 6.98861 0.0713188 7.39013C0.0223906 7.47151 -0.00447751 7.56611 0.000613288 7.66692L0.481976 14.4773C0.525814 15.3313 1.23287 16 2.09152 16H10.0306C10.8893 16 11.5963 15.3313 11.6399 14.4823L12.1334 7.43518C12.1334 7.4335 12.1337 7.43181 12.1337 7.43012C12.1416 7.30031 12.0814 7.17896 11.9736 7.10518ZM8.95702 3.87641C9.06902 3.66833 9.19119 3.41041 9.32044 3.13701C9.74553 2.23823 10.3281 1.00749 11.0021 0.661158C11.2482 0.535014 11.46 0.53248 11.65 0.650458C11.9778 0.855442 12.1707 1.37269 12.1614 1.73479C12.1181 3.39943 11.8127 5.15137 11.2532 6.94215C11.2349 7.001 11.1941 7.11983 11.1362 7.28285L10.6542 7.496C10.6438 7.50079 10.6336 7.50586 10.6237 7.51205C10.4845 7.59512 10.3284 7.63623 10.1723 7.63792C10.0162 7.63623 9.86035 7.59512 9.7212 7.51205L9.51955 7.39154C9.28764 7.25301 9.02772 7.18374 8.76781 7.18374C8.7647 7.18374 8.76159 7.1843 8.75819 7.1843C8.49517 7.18262 8.23158 7.25104 7.99684 7.39154L7.79547 7.51205C7.68319 7.57907 7.55903 7.61173 7.43346 7.62581C7.44053 7.60131 7.44873 7.57738 7.45608 7.55316C7.53357 7.29102 7.61672 7.03254 7.70383 6.77603C7.73692 6.6786 7.77143 6.58174 7.80593 6.48517C7.87862 6.28159 7.9547 6.08055 8.03332 5.88091C8.06839 5.79166 8.10261 5.70155 8.13881 5.61314C8.38544 5.01424 8.65751 4.43336 8.95702 3.87641ZM5.3516 4.5443C5.38469 4.50206 5.41694 4.46095 5.44748 4.42097C5.44748 4.42041 5.44776 4.42013 5.44805 4.41984C5.47039 4.39028 5.4899 4.35959 5.50631 4.3289C5.57588 4.19853 5.59229 4.05211 5.56004 3.90908L6.74054 3.652C6.74846 3.68804 6.75695 3.7238 6.77052 3.75703C6.82341 3.88599 6.91787 3.99326 7.04938 4.06816C7.09237 4.09181 7.13734 4.11547 7.18372 4.13996C7.22191 4.15995 7.26009 4.18079 7.29855 4.20163C7.31693 4.21148 7.3356 4.22134 7.35398 4.23147C7.38764 4.25034 7.42016 4.27117 7.45297 4.29173C7.48097 4.30891 7.50869 4.32664 7.53584 4.34551C7.56723 4.36719 7.59721 4.39112 7.62719 4.41534C7.65349 4.43674 7.67866 4.46011 7.70355 4.48404C7.73042 4.51023 7.757 4.53698 7.78161 4.56626C7.82516 4.61807 7.86702 4.67185 7.90124 4.73633C7.78133 4.99988 7.66848 5.26878 7.55931 5.53993C7.54234 5.58189 7.52424 5.62271 7.50756 5.66467C7.19758 5.74294 6.89807 5.88936 6.52814 6.1515C6.06205 6.48122 5.71503 6.56879 5.14316 6.48629L4.97149 5.70381C4.85497 5.17474 5.10753 4.85431 5.3516 4.5443ZM6.75412 2.83432C6.76147 2.83291 6.76882 2.83207 6.77618 2.83207C6.82963 2.83207 6.87969 2.87008 6.89129 2.92358C6.90034 2.96412 6.88506 2.99594 6.87488 3.01143C6.86498 3.02663 6.84264 3.05338 6.8022 3.06211L5.23989 3.40253C5.17767 3.41604 5.11432 3.37494 5.10074 3.31355C5.08717 3.25189 5.12817 3.18854 5.19011 3.17502L6.02019 2.99425L6.75412 2.83432ZM5.84004 7.18937C5.81854 7.19078 5.79677 7.19134 5.77527 7.1936C5.62113 7.20908 5.46898 7.24794 5.32445 7.3127L5.27043 7.06633C5.35189 7.07308 5.43306 7.07984 5.50914 7.07984C6.00238 7.07984 6.39946 6.93371 6.85593 6.61046C6.99961 6.50854 7.12688 6.43139 7.24793 6.36747C7.22191 6.44096 7.19617 6.51417 7.171 6.58794C7.1529 6.64087 7.13338 6.69296 7.11585 6.74618C7.0327 6.99678 6.95351 7.24935 6.87969 7.50417L6.69161 7.3921C6.4597 7.25357 6.19979 7.1843 5.93987 7.1843C5.93648 7.1843 5.9328 7.18487 5.92941 7.18487C5.89943 7.18431 5.86973 7.18768 5.84004 7.18937ZM2.4572 4.27765L2.64245 4.1256L2.52225 3.91921C2.44702 3.78969 2.40714 3.64327 2.40714 3.49517C2.40714 3.03902 2.76605 2.66707 3.22422 2.64792L3.56756 2.63356L3.48752 2.30074C3.47395 2.24499 3.46716 2.19009 3.46716 2.138C3.46716 1.77533 3.75168 1.46983 4.11482 1.44223L4.37615 1.42252V1.14236C4.38435 0.88923 4.59392 0.685655 4.85044 0.685655C4.99808 0.685655 5.10385 0.752668 5.16636 0.808982L5.36461 0.987217L5.55467 0.800254C5.64178 0.714656 5.76141 0.674673 5.88472 0.688752C6.03632 0.706491 6.1732 0.824187 6.21732 0.975391C6.23231 1.02607 6.23655 1.07507 6.23061 1.1249L6.19752 1.43942H6.51598C6.9224 1.43942 7.26235 1.75562 7.29035 2.1594L7.30308 2.34439L7.47871 2.40577C7.92076 2.56035 8.2115 2.97679 8.2016 3.44279C8.19736 3.64186 8.13287 3.83361 8.01607 4.00171C7.82686 3.84178 7.62295 3.73394 7.45156 3.64412C7.40715 3.62075 7.36416 3.59822 7.32089 3.57429C7.30873 3.56753 7.29402 3.5557 7.28893 3.52614C7.28215 3.48559 7.29742 3.43688 7.32825 3.40112C7.45156 3.25865 7.50105 3.06436 7.46117 2.88106L7.42695 2.72592C7.39273 2.56936 7.29883 2.43562 7.16308 2.34889C7.02761 2.26245 6.8664 2.23345 6.70943 2.2678L6.63364 2.28441C6.63279 2.28469 6.63194 2.28441 6.63109 2.28469L5.80101 2.46546L4.99101 2.64144C4.83404 2.67551 4.6997 2.76871 4.61259 2.90415C4.52548 3.03902 4.49663 3.1998 4.53085 3.35607L4.54782 3.43266C4.54782 3.43294 4.54782 3.43322 4.54782 3.4335C4.54782 3.43378 4.54811 3.43407 4.54811 3.43463L4.56479 3.51093C4.6058 3.69846 4.73675 3.85642 4.91464 3.93245C4.95876 3.95131 4.99553 3.98707 5.00826 4.02339C5.01561 4.04423 5.01137 4.05493 4.99497 4.08196C4.99497 4.08196 4.99497 4.08196 4.99497 4.08224C4.96697 4.11969 4.9367 4.1577 4.90588 4.19684C4.87477 4.23626 4.84252 4.27765 4.80972 4.32045C4.79869 4.33481 4.78822 4.34973 4.77719 4.36438C4.75372 4.39619 4.73024 4.42857 4.70705 4.46236C4.69433 4.48066 4.68216 4.49953 4.66972 4.51868C4.64823 4.55162 4.62758 4.58569 4.60722 4.6206C4.59534 4.64088 4.58374 4.66087 4.57243 4.68199C4.55122 4.72141 4.53199 4.7628 4.51304 4.80503C4.50484 4.82305 4.49607 4.84023 4.48871 4.85909C4.46383 4.92048 4.44177 4.98468 4.42423 5.05225C4.4214 5.06295 4.42027 5.0745 4.41773 5.08548C4.40415 5.14292 4.39312 5.20233 4.38605 5.26427C4.38322 5.28905 4.38266 5.31496 4.38096 5.34058C4.3787 5.37381 4.37445 5.40534 4.37445 5.43997C4.37332 5.43857 4.37219 5.43716 4.37106 5.43575C4.3671 5.43068 4.36314 5.42618 4.35946 5.42111C4.31025 5.35663 4.26104 5.29722 4.21155 5.2409C4.19599 5.22317 4.18016 5.20599 4.16432 5.1891C4.12274 5.14433 4.08117 5.10237 4.03931 5.06295C4.02573 5.05028 4.01216 5.03648 3.9983 5.0241C3.94541 4.97707 3.89224 4.93399 3.83879 4.8957C3.8238 4.885 3.80853 4.87599 3.79354 4.86585C3.75338 4.8391 3.71322 4.81432 3.67249 4.79236C3.65269 4.78166 3.63318 4.77124 3.6131 4.76167C3.57096 4.74112 3.52853 4.72366 3.48583 4.70845C3.47169 4.70339 3.45755 4.69663 3.4434 4.69212C3.39702 4.67748 3.35036 4.66566 3.30341 4.65693C3.29803 4.6558 3.29266 4.65636 3.28729 4.65552C3.27767 4.65383 3.26834 4.65017 3.25872 4.64876C3.22591 4.64397 3.1948 4.64595 3.16256 4.64369C3.13994 4.64229 3.11759 4.6375 3.09497 4.6375C3.08818 4.6375 3.08111 4.63919 3.07404 4.63919C3.0302 4.63975 2.98778 4.64482 2.94507 4.65017C2.92386 4.65298 2.90265 4.65467 2.88144 4.65862C2.82572 4.66875 2.7717 4.68283 2.71825 4.69973C2.71005 4.70226 2.70213 4.70423 2.69393 4.70705C2.55308 4.75463 2.41959 4.82193 2.29458 4.9033C2.26884 4.83995 2.25527 4.77181 2.25527 4.7017C2.25555 4.53698 2.32909 4.3824 2.4572 4.27765ZM0.640074 6.61553C0.759707 6.39112 1.05017 6.21993 1.55444 6.07632C1.79031 6.00931 2.00921 5.88401 2.18683 5.71507C2.26743 5.6382 2.34294 5.57316 2.41591 5.51403C2.64387 5.3296 2.84043 5.22936 3.01832 5.20655C3.02228 5.20599 3.02624 5.20543 3.0302 5.20514C3.08648 5.19895 3.14107 5.20064 3.19396 5.20993C3.20781 5.21247 3.22195 5.21725 3.2361 5.22091C3.2624 5.22739 3.28842 5.23387 3.31472 5.24428C3.33169 5.25076 3.34866 5.26061 3.36591 5.2685C3.39052 5.28032 3.41484 5.29102 3.43944 5.30595C3.45868 5.31749 3.47791 5.33242 3.49714 5.34565C3.52005 5.3617 3.54296 5.37634 3.56615 5.39492C3.58764 5.4121 3.60914 5.43294 3.63063 5.45236C3.65213 5.47179 3.67362 5.48953 3.69512 5.51121C3.71887 5.53515 3.74291 5.56302 3.76695 5.58977C3.78647 5.61145 3.80598 5.63144 3.82578 5.65481C3.85265 5.68691 3.8798 5.72352 3.90695 5.75899C3.9242 5.78152 3.94117 5.80179 3.95842 5.82573C3.98925 5.86853 4.02036 5.91611 4.05147 5.96342C4.06505 5.98425 4.07891 6.00283 4.09248 6.02423C4.13745 6.09491 4.1827 6.17009 4.22824 6.25005C4.43639 6.61581 4.5054 7.15615 4.4149 7.62665C4.39991 7.62524 4.3852 7.62299 4.37021 7.62074C4.26246 7.60244 4.15866 7.56809 4.0642 7.51177L3.86255 7.39126C3.63063 7.25273 3.37072 7.18346 3.11081 7.18346C3.10769 7.18346 3.10458 7.18402 3.10119 7.18402C2.83817 7.18233 2.57458 7.25076 2.33983 7.39126L2.24169 7.44983C2.07059 7.55204 1.87883 7.60356 1.68708 7.60525C1.49504 7.60356 1.30357 7.55232 1.13247 7.44983L0.752071 7.22232C0.752071 7.22232 0.751788 7.22232 0.751788 7.22204C0.701729 7.19247 0.64771 7.1722 0.592277 7.16206C0.547874 6.93934 0.563712 6.75913 0.640074 6.61553ZM11.0765 14.4483C11.0479 15.0024 10.5889 15.4366 10.0317 15.4366H2.09236C1.53492 15.4366 1.07618 15.0024 1.04734 14.4429L0.576721 7.78602L0.822777 7.933C1.08948 8.09237 1.38899 8.17065 1.68765 8.16896C1.98659 8.17065 2.28581 8.09237 2.55252 7.933L2.65065 7.87443C2.7898 7.79109 2.94564 7.74998 3.10176 7.74829C3.25787 7.74998 3.41371 7.79109 3.55314 7.87443L3.75479 7.99495C4.0099 8.14728 4.29894 8.2126 4.58459 8.19711C4.61004 8.19599 4.6355 8.19599 4.66124 8.19374C4.66435 8.19345 4.66717 8.19176 4.67057 8.19148C4.86374 8.1698 5.05323 8.10926 5.22801 8.01015C5.24441 8.00424 5.26195 8.00396 5.27722 7.99495L5.47887 7.87443C5.61802 7.79109 5.77386 7.74998 5.92998 7.74829C6.08609 7.74998 6.24193 7.79109 6.38136 7.87443L6.58301 7.99495C6.79711 8.1225 7.03524 8.18867 7.27479 8.19852C7.2796 8.1988 7.28469 8.19937 7.2895 8.19937C7.37208 8.2019 7.45467 8.19937 7.53669 8.18782C7.58363 8.18191 7.62917 8.17008 7.67527 8.15967C7.69761 8.15432 7.71995 8.14953 7.74201 8.14305C7.86759 8.10842 7.99062 8.06309 8.10516 7.99467L8.30681 7.87415C8.44596 7.79081 8.60179 7.7497 8.75791 7.74801C8.91403 7.7497 9.06986 7.79081 9.2093 7.87415L9.41095 7.99467C9.64456 8.13404 9.90673 8.20247 10.1686 8.20134C10.1729 8.20134 10.1774 8.20218 10.1816 8.20218C10.4356 8.20218 10.6899 8.1363 10.9178 8.00396L11.4727 7.75843C11.4846 7.75308 11.4931 7.74294 11.5041 7.73618L11.5474 7.71704L11.0765 14.4483Z" fill="#2A2237"/>
<path d="M1.69725 12.1087H3.677C3.83312 12.1087 3.95983 11.9828 3.95983 11.8271C3.95983 11.6714 3.83312 11.5455 3.677 11.5455H1.69725C1.54113 11.5455 1.41443 11.6714 1.41443 11.8271C1.41443 11.9828 1.54113 12.1087 1.69725 12.1087Z" fill="#2A2237"/>
<path d="M1.69725 13.235H4.24265C4.39877 13.235 4.52547 13.1092 4.52547 12.9534C4.52547 12.7977 4.39877 12.6719 4.24265 12.6719H1.69725C1.54113 12.6719 1.41443 12.7977 1.41443 12.9534C1.41443 13.1092 1.54113 13.235 1.69725 13.235Z" fill="#2A2237"/>
<path d="M4.80829 13.7981H1.69725C1.54113 13.7981 1.41443 13.924 1.41443 14.0797C1.41443 14.2354 1.54113 14.3612 1.69725 14.3612H4.80829C4.96441 14.3612 5.09111 14.2354 5.09111 14.0797C5.09111 13.924 4.96441 13.7981 4.80829 13.7981Z" fill="#2A2237"/>
<path d="M6.50523 13.7981H5.93959C5.78347 13.7981 5.65677 13.924 5.65677 14.0797C5.65677 14.2354 5.78347 14.3612 5.93959 14.3612H6.50523C6.66135 14.3612 6.78806 14.2354 6.78806 14.0797C6.78806 13.924 6.66135 13.7981 6.50523 13.7981Z" fill="#2A2237"/>
</svg>
