<svg width="23" height="23" viewBox="0 0 23 23" fill="none" xmlns="http://www.w3.org/2000/svg">
<path d="M3.83334 22.2329L5.1108 19.7623L7.66668 18.5274L5.1108 17.2925L3.83334 14.8219L2.55588 17.2925L0 18.5274L2.55588 19.7623L3.83334 22.2329Z" fill="#FFE8BB"/>
<path d="M19.1666 14.8219L17.8891 17.2925L15.3333 18.5274L17.8891 19.7623L19.1666 22.2329L20.4441 19.7623L22.9999 18.5274L20.4441 17.2925L19.1666 14.8219Z" fill="#FFE8BB"/>
<path d="M12.7776 2.47064L11.5001 0L10.2226 2.47064L7.66675 3.7055L10.2226 4.94036L11.5001 7.41101L12.7776 4.94036L15.3334 3.7055L12.7776 2.47064Z" fill="#FFE8BB"/>
<path d="M5.27075 13.8956C6.06466 13.8956 6.70825 13.2735 6.70825 12.5061C6.70825 11.7386 6.06466 11.1165 5.27075 11.1165C4.47684 11.1165 3.83325 11.7386 3.83325 12.5061C3.83325 13.2735 4.47684 13.8956 5.27075 13.8956Z" fill="#FFE8BB"/>
<path d="M1.4375 10.1902C2.23141 10.1902 2.875 9.56808 2.875 8.80064C2.875 8.0332 2.23141 7.41107 1.4375 7.41107C0.643591 7.41107 0 8.0332 0 8.80064C0 9.56808 0.643591 10.1902 1.4375 10.1902Z" fill="#FFE8BB"/>
<path d="M5.27075 6.48451C6.06466 6.48451 6.70825 5.86238 6.70825 5.09495C6.70825 4.32751 6.06466 3.70538 5.27075 3.70538C4.47684 3.70538 3.83325 4.32751 3.83325 5.09495C3.83325 5.86238 4.47684 6.48451 5.27075 6.48451Z" fill="#FFE8BB"/>
<path d="M1.4375 2.77913C2.23141 2.77913 2.875 2.157 2.875 1.38957C2.875 0.62213 2.23141 0 1.4375 0C0.643591 0 0 0.62213 0 1.38957C0 2.157 0.643591 2.77913 1.4375 2.77913Z" fill="#FFE8BB"/>
<path d="M21.5625 13.8956C22.3564 13.8956 23 13.2735 23 12.5061C23 11.7386 22.3564 11.1165 21.5625 11.1165C20.7686 11.1165 20.125 11.7386 20.125 12.5061C20.125 13.2735 20.7686 13.8956 21.5625 13.8956Z" fill="#FFE8BB"/>
<path d="M17.7292 10.1902C18.5232 10.1902 19.1667 9.56808 19.1667 8.80064C19.1667 8.0332 18.5232 7.41107 17.7292 7.41107C16.9353 7.41107 16.2917 8.0332 16.2917 8.80064C16.2917 9.56808 16.9353 10.1902 17.7292 10.1902Z" fill="#FFE8BB"/>
<path d="M21.5625 6.48451C22.3564 6.48451 23 5.86238 23 5.09495C23 4.32751 22.3564 3.70538 21.5625 3.70538C20.7686 3.70538 20.125 4.32751 20.125 5.09495C20.125 5.86238 20.7686 6.48451 21.5625 6.48451Z" fill="#FFE8BB"/>
<path d="M17.7292 2.77913C18.5232 2.77913 19.1667 2.157 19.1667 1.38957C19.1667 0.62213 18.5232 0 17.7292 0C16.9353 0 16.2917 0.62213 16.2917 1.38957C16.2917 2.157 16.9353 2.77913 17.7292 2.77913Z" fill="#FFE8BB"/>
<path d="M13.8958 22.233C14.6897 22.233 15.3333 21.6109 15.3333 20.8435C15.3333 20.076 14.6897 19.4539 13.8958 19.4539C13.1018 19.4539 12.4583 20.076 12.4583 20.8435C12.4583 21.6109 13.1018 22.233 13.8958 22.233Z" fill="#FFE8BB"/>
<path d="M10.0625 18.5277C10.8564 18.5277 11.5 17.9055 11.5 17.1381C11.5 16.3707 10.8564 15.7485 10.0625 15.7485C9.26859 15.7485 8.625 16.3707 8.625 17.1381C8.625 17.9055 9.26859 18.5277 10.0625 18.5277Z" fill="#FFE8BB"/>
<path d="M13.8958 14.822C14.6897 14.822 15.3333 14.1998 15.3333 13.4324C15.3333 12.665 14.6897 12.0428 13.8958 12.0428C13.1018 12.0428 12.4583 12.665 12.4583 13.4324C12.4583 14.1998 13.1018 14.822 13.8958 14.822Z" fill="#FFE8BB"/>
<path d="M10.0625 11.1166C10.8564 11.1166 11.5 10.4945 11.5 9.72703C11.5 8.95959 10.8564 8.33746 10.0625 8.33746C9.26859 8.33746 8.625 8.95959 8.625 9.72703C8.625 10.4945 9.26859 11.1166 10.0625 11.1166Z" fill="#FFE8BB"/>
</svg>
